<svg id="Capa_1" enable-background="new 0 0 512 512" height="512" viewBox="0 0 512 512" width="512" xmlns="http://www.w3.org/2000/svg"><g><g><path d="m291.816 328.239h-11.775c-4.142 0-7.5 3.358-7.5 7.5s3.358 7.5 7.5 7.5h11.775c4.142 0 7.5-3.358 7.5-7.5s-3.358-7.5-7.5-7.5z"/><path d="m334.758 328.239h-11.775c-4.142 0-7.5 3.358-7.5 7.5s3.358 7.5 7.5 7.5h11.775c4.142 0 7.5-3.358 7.5-7.5s-3.358-7.5-7.5-7.5z"/><path d="m377.7 328.239h-11.775c-4.142 0-7.5 3.358-7.5 7.5s3.358 7.5 7.5 7.5h11.775c4.142 0 7.5-3.358 7.5-7.5s-3.358-7.5-7.5-7.5z"/><path d="m420.642 328.239h-11.776c-4.142 0-7.5 3.358-7.5 7.5s3.358 7.5 7.5 7.5h11.776c4.142 0 7.5-3.358 7.5-7.5s-3.358-7.5-7.5-7.5z"/><path d="m291.816 367.603h-11.775c-4.142 0-7.5 3.358-7.5 7.5s3.358 7.5 7.5 7.5h11.775c4.142 0 7.5-3.358 7.5-7.5s-3.358-7.5-7.5-7.5z"/><path d="m334.758 367.603h-11.775c-4.142 0-7.5 3.358-7.5 7.5s3.358 7.5 7.5 7.5h11.775c4.142 0 7.5-3.358 7.5-7.5s-3.358-7.5-7.5-7.5z"/><path d="m377.7 367.603h-11.775c-4.142 0-7.5 3.358-7.5 7.5s3.358 7.5 7.5 7.5h11.775c4.142 0 7.5-3.358 7.5-7.5s-3.358-7.5-7.5-7.5z"/><path d="m420.642 367.603h-11.776c-4.142 0-7.5 3.358-7.5 7.5s3.358 7.5 7.5 7.5h11.776c4.142 0 7.5-3.358 7.5-7.5s-3.358-7.5-7.5-7.5z"/><path d="m172.085 161.491h-38.03c-4.142 0-7.5 3.358-7.5 7.5s3.358 7.5 7.5 7.5h38.03c4.142 0 7.5-3.358 7.5-7.5s-3.358-7.5-7.5-7.5z"/><path d="m172.085 191.514h-38.03c-4.142 0-7.5 3.358-7.5 7.5s3.358 7.5 7.5 7.5h38.03c4.142 0 7.5-3.358 7.5-7.5s-3.358-7.5-7.5-7.5z"/><path d="m435.107 288.382v-49.451c0-8.542-6.95-15.492-15.492-15.492h-137.469c-8.542 0-15.492 6.95-15.492 15.492v49.451c0 8.542 6.95 15.492 15.492 15.492h137.469c8.542.001 15.492-6.949 15.492-15.492zm-15 0c0 .271-.221.492-.492.492h-137.469c-.271 0-.492-.221-.492-.492v-49.451c0-.271.221-.492.492-.492h137.469c.271 0 .492.221.492.492z"/><path d="m68.104 270.439v19.461c0 7.706 6.269 13.974 13.974 13.974h141.985c7.706 0 13.974-6.269 13.974-13.974v-19.461c0-7.706-6.269-13.974-13.974-13.974h-11.694v-112.145c0-8.597-6.994-15.591-15.59-15.591h-87.416c-8.597 0-15.59 6.994-15.59 15.591v112.145h-11.695c-7.706 0-13.974 6.268-13.974 13.974zm144.264 1.026h10.668v17.41h-10.668zm-103.596-127.145c0-.326.265-.591.59-.591h87.416c.326 0 .59.265.59.591v144.555h-88.596zm-25.668 127.145h10.668v17.41h-10.668z"/><path d="m495.934 423.398h-10.665l-15.962-231.683c-.665-9.657-8.769-17.222-18.449-17.222h-70.214v-31.944h73.799c12.784 0 23.184-10.4 23.184-23.184v-90.93c0-12.784-10.4-23.184-23.184-23.184h-208.82c-12.784 0-23.184 10.4-23.184 23.184v90.93c0 12.784 10.4 23.184 23.184 23.184h73.799v31.944h-79.368c-4.142 0-7.5 3.358-7.5 7.5s3.358 7.5 7.5 7.5h210.804c1.828 0 3.358 1.429 3.484 3.252l15.891 230.652h-428.853l15.891-230.653c.125-1.823 1.656-3.252 3.484-3.252h5.275c4.142 0 7.5-3.358 7.5-7.5s-3.358-7.5-7.5-7.5h-5.275c-9.68 0-17.784 7.564-18.449 17.221l-15.962 231.685h-10.278c-8.858 0-16.066 7.207-16.066 16.066v51.218c0 8.859 7.208 16.066 16.066 16.066h479.867c8.859 0 16.066-7.208 16.066-16.066v-51.218c.001-8.859-7.207-16.066-16.065-16.066zm-250.311-295.849c-4.512 0-8.184-3.671-8.184-8.184v-90.93c0-4.513 3.671-8.184 8.184-8.184h208.819c4.512 0 8.184 3.671 8.184 8.184v90.93c0 4.513-3.671 8.184-8.184 8.184zm120.021 46.944h-31.222v-31.944h31.222zm131.356 316.189c0 .588-.479 1.066-1.066 1.066h-73.68v-16.208c0-10.183-8.284-18.467-18.467-18.467h-27.083c-4.142 0-7.5 3.358-7.5 7.5s3.358 7.5 7.5 7.5h27.083c1.912 0 3.467 1.555 3.467 3.467v16.208h-298.482v-16.208c0-1.912 1.555-3.467 3.467-3.467h229.376c4.142 0 7.5-3.358 7.5-7.5s-3.358-7.5-7.5-7.5h-229.376c-10.183 0-18.467 8.284-18.467 18.467v16.208h-77.706c-.588 0-1.066-.479-1.066-1.066v-51.218c0-.588.479-1.066 1.066-1.066h479.867c.588 0 1.066.479 1.066 1.066v51.218z"/><path d="m434.054 35.275h-168.043c-7.471 0-13.548 6.078-13.548 13.548v50.154c0 7.471 6.078 13.548 13.548 13.548h168.043c7.471 0 13.548-6.078 13.548-13.548v-50.154c.001-7.47-6.077-13.548-13.548-13.548zm-1.451 62.25h-165.14v-47.25h165.14z"/></g></g></svg>